<!-- icon666.com - MILLIONS vector ICONS FREE --><svg id="Layer_1" viewBox="0 0 64 64" xmlns="http://www.w3.org/2000/svg" data-name="Layer 1"><g fill="rgb(0,0,0)"><path d="m60.382 44.86h-56.727v-39.27h56.727zm-54.727-2h52.727v-35.27h-52.727z"></path><path d="m5.71 35.117h52.616v2h-52.616z"></path><path d="m38.735 53.137h-2v-8.101h-9.434v8.101h-2v-10.101h13.434z"></path><path d="m47.206 59.817h-30.375v-7.675h30.375zm-28.375-2h26.375v-3.675h-26.375z"></path><path d="m21.909 31.512h-2v-4.177h-10.333l9.736-16.3h2.6v14.3h2.6v2h-2.6zm-8.809-6.177h6.809v-11.4z"></path><path d="m51.547 31.512h-2v-4.177h-10.332l9.736-16.3h2.6v14.3h2.6v2h-2.6zm-8.809-6.177h6.809v-11.4z"></path><path d="m32.332 31.006a5.638 5.638 0 0 1 -5.632-5.631v-7.275a5.631 5.631 0 1 1 11.262 0v7.273a5.638 5.638 0 0 1 -5.63 5.633zm0-16.535a3.635 3.635 0 0 0 -3.632 3.629v7.273a3.631 3.631 0 0 0 7.262 0v-7.273a3.635 3.635 0 0 0 -3.63-3.629z"></path></g></svg>