<svg width="49" height="59" viewBox="0 0 49 59" fill="none" xmlns="http://www.w3.org/2000/svg">
<path d="M14.3223 25.9531V30.9571L14.4332 30.8481C14.6118 30.6724 14.8325 30.5315 15.0804 30.435C15.3283 30.3384 15.5976 30.2885 15.8701 30.2885H19.3828V25.9531H14.3223Z" fill="#13416F"/>
<path d="M43.617 41.1698H30.01V32.3848C30.01 32.2149 29.9849 32.0458 29.9352 31.8814C29.7482 31.259 29.1818 30.7699 28.4814 30.535L27.8106 30.3103H37.7049V33.225C37.7049 33.4486 37.7565 33.6701 37.8567 33.8767C37.9569 34.0834 38.1038 34.2711 38.289 34.4292C38.4742 34.5874 38.6941 34.7128 38.936 34.7984C39.178 34.884 39.4374 34.928 39.6993 34.928H42.803V30.2513C42.8031 29.6874 42.6731 29.129 42.4204 28.608C42.1677 28.0871 41.7973 27.6137 41.3303 27.2149C40.8634 26.8162 40.309 26.4999 39.6989 26.2842C39.0888 26.0684 38.4349 25.9574 37.7745 25.9574H24.9093V41.1698H19.3893V34.8957H17.364C16.561 34.8997 15.7916 35.1708 15.219 35.6515C14.6464 36.1322 14.3159 36.7845 14.2976 37.47H14.2966C14.2956 37.4815 14.2939 37.4929 14.2915 37.5042V52.8155L15.8847 51.4551V47.821C15.6689 47.7935 15.4733 47.6973 15.3372 47.5518C15.201 47.4063 15.1343 47.2222 15.1505 47.0364C15.1666 46.8506 15.2645 46.677 15.4243 46.5502C15.5842 46.4235 15.7943 46.353 16.0124 46.353C16.2305 46.353 16.4406 46.4235 16.6005 46.5502C16.7603 46.677 16.8582 46.8506 16.8743 47.0364C16.8905 47.2222 16.8238 47.4063 16.6876 47.5518C16.5515 47.6973 16.3559 47.7935 16.1401 47.821V51.5455L14.2916 53.1207V56.6941C15.7016 56.6236 16.8755 56.2105 17.7436 55.5275V45.5154C17.5275 45.4879 17.3316 45.3916 17.1952 45.2459C17.0588 45.1001 16.9919 44.9157 17.0081 44.7297C17.0243 44.5436 17.1222 44.3697 17.2823 44.2427C17.4424 44.1157 17.6529 44.0452 17.8713 44.0452C18.0898 44.0452 18.3003 44.1157 18.4604 44.2427C18.6205 44.3697 18.7184 44.5436 18.7346 44.7297C18.7508 44.9157 18.6839 45.1001 18.5475 45.2459C18.4111 45.3916 18.2152 45.4879 17.9991 45.5154V55.316C18.8905 54.4986 19.3894 53.3563 19.3894 51.9794V45.5233H45.9059V43.124C45.9059 42.8673 45.8468 42.6131 45.7317 42.376C45.6167 42.1389 45.4481 41.9234 45.2356 41.742C45.023 41.5605 44.7707 41.4166 44.493 41.3184C44.2152 41.2202 43.9176 41.1697 43.617 41.1698Z" fill="#13416F"/>
<path d="M32.3953 2.17279C31.3454 2.17262 30.3226 2.45714 29.4743 2.98534C28.626 3.51354 27.996 4.25813 27.6752 5.11176L27.5772 5.37042H18.2439C17.6587 5.37035 17.0793 5.46871 16.5387 5.6599C15.998 5.85108 15.5068 6.13133 15.093 6.48465C14.6793 6.83797 14.3511 7.25743 14.1272 7.71907C13.9033 8.18072 13.7881 8.6755 13.7882 9.17517V17.1439H3.62158V45.3775H3.8744C4.18182 45.377 4.48848 45.3515 4.79028 45.3015V33.3897C4.57453 33.3621 4.37895 33.266 4.24278 33.1204C4.10661 32.9749 4.03991 32.7908 4.05607 32.6051C4.07224 32.4193 4.17006 32.2456 4.32993 32.1189C4.48979 31.9921 4.69987 31.9217 4.91801 31.9217C5.13615 31.9217 5.34623 31.9921 5.50609 32.1189C5.66596 32.2456 5.76378 32.4193 5.77994 32.6051C5.79611 32.7908 5.72941 32.9749 5.59324 33.1204C5.45706 33.266 5.26149 33.3621 5.04574 33.3897V45.2512C5.86029 45.0766 6.60796 44.7247 7.21588 44.2299C7.8238 43.7351 8.27123 43.1143 8.51455 42.4279L6.52799 40.7337V37.0083C6.31224 36.9807 6.11666 36.8846 5.98049 36.739C5.84432 36.5935 5.77762 36.4094 5.79378 36.2236C5.80995 36.0379 5.90777 35.8642 6.06764 35.7375C6.2275 35.6107 6.43757 35.5403 6.65572 35.5403C6.87386 35.5403 7.08394 35.6107 7.2438 35.7375C7.40366 35.8642 7.50149 36.0379 7.51765 36.2236C7.53382 36.4094 7.46712 36.5935 7.33095 36.739C7.19477 36.8846 6.99919 36.9807 6.78345 37.0083V40.6445L8.5895 42.1844C8.67544 41.8755 8.71958 41.5591 8.72108 41.2415L8.71595 23.8018C8.71589 23.6808 8.70467 23.5599 8.6824 23.4404C8.51595 22.5592 7.69941 21.8686 6.68675 21.6493L6.13591 21.4984H27.5397C28.8648 21.4984 30.1356 21.049 31.0726 20.2489C32.0095 19.4488 32.5359 18.3636 32.5359 17.2321V2.17392H32.3953V2.17279ZM27.4365 17.1439H18.8876V11.829C18.8874 11.4936 18.7803 11.1645 18.5778 10.8771C18.3753 10.5897 18.085 10.3547 17.7381 10.1975L16.6973 9.72492L27.4366 9.72379L27.4365 17.1439Z" fill="#13416F"/>
<path d="M22.5606 49.1843H22.3051L23.044 47.1719H23.2956L24.0345 49.1843H23.779L23.1777 47.4903H23.1619L22.5606 49.1843ZM22.6549 48.3982H23.6847V48.6144H22.6549V48.3982ZM24.2811 49.1843V49.0074L25.3659 47.3881H24.2693V47.1719H25.6568V47.3488L24.572 48.9681H25.6685V49.1843H24.2811ZM26.0773 47.1719H26.3682L27.052 48.8423H27.0756L27.7595 47.1719H28.0504V49.1843H27.8224V47.6553H27.8027L27.1739 49.1843H26.9538L26.3249 47.6553H26.3053V49.1843H26.0773V47.1719ZM30.4177 47.675C30.4059 47.5754 30.3581 47.4981 30.2742 47.4431C30.1904 47.3881 30.0875 47.3606 29.9657 47.3606C29.8766 47.3606 29.7986 47.375 29.7318 47.4038C29.6657 47.4326 29.6139 47.4723 29.5766 47.5227C29.5399 47.5731 29.5216 47.6305 29.5216 47.6946C29.5216 47.7484 29.5343 47.7945 29.5599 47.8332C29.5861 47.8712 29.6195 47.903 29.6601 47.9285C29.7007 47.9534 29.7433 47.974 29.7878 47.9904C29.8324 48.0061 29.8733 48.0189 29.9107 48.0287L30.115 48.0838C30.1674 48.0975 30.2257 48.1165 30.2899 48.1407C30.3548 48.165 30.4167 48.1981 30.4757 48.24C30.5353 48.2813 30.5844 48.3343 30.623 48.3992C30.6617 48.464 30.681 48.5436 30.681 48.6379C30.681 48.7467 30.6525 48.8449 30.5955 48.9327C30.5392 49.0205 30.4567 49.0903 30.3479 49.142C30.2398 49.1938 30.1085 49.2196 29.9539 49.2196C29.8098 49.2196 29.685 49.1964 29.5795 49.1499C29.4747 49.1034 29.3922 49.0385 29.3319 48.9553C29.2723 48.8721 29.2386 48.7755 29.2307 48.6655H29.4822C29.4888 48.7414 29.5143 48.8043 29.5589 48.8541C29.6041 48.9032 29.6611 48.9399 29.7299 48.9642C29.7993 48.9877 29.874 48.9995 29.9539 48.9995C30.0469 48.9995 30.1304 48.9845 30.2045 48.9543C30.2785 48.9235 30.3371 48.881 30.3803 48.8266C30.4236 48.7716 30.4452 48.7074 30.4452 48.634C30.4452 48.5672 30.4265 48.5128 30.3892 48.4709C30.3518 48.429 30.3027 48.3949 30.2418 48.3687C30.1809 48.3425 30.115 48.3196 30.0443 48.2999L29.7967 48.2292C29.6395 48.184 29.515 48.1195 29.4233 48.0356C29.3316 47.9518 29.2857 47.842 29.2857 47.7064C29.2857 47.5938 29.3162 47.4955 29.3771 47.4117C29.4387 47.3272 29.5212 47.2617 29.6247 47.2151C29.7289 47.168 29.8452 47.1444 29.9735 47.1444C30.1032 47.1444 30.2185 47.1677 30.3194 47.2142C30.4203 47.26 30.5002 47.3229 30.5592 47.4028C30.6188 47.4827 30.6502 47.5735 30.6535 47.675H30.4177ZM31.1642 49.1843H30.9087L31.6476 47.1719H31.8992L32.6381 49.1843H32.3826L31.7813 47.4903H31.7656L31.1642 49.1843ZM31.2585 48.3982H32.2883V48.6144H31.2585V48.3982ZM34.2722 47.1719H34.5158V48.5043C34.5158 48.6419 34.4834 48.7647 34.4186 48.8728C34.3544 48.9802 34.2636 49.065 34.1464 49.1273C34.0291 49.1889 33.8916 49.2196 33.7337 49.2196C33.5758 49.2196 33.4383 49.1889 33.321 49.1273C33.2037 49.065 33.1127 48.9802 33.0478 48.8728C32.9836 48.7647 32.9515 48.6419 32.9515 48.5043V47.1719H33.1952V48.4847C33.1952 48.5829 33.2168 48.6704 33.2601 48.747C33.3033 48.823 33.3649 48.8829 33.4448 48.9268C33.5254 48.9701 33.6217 48.9917 33.7337 48.9917C33.8457 48.9917 33.942 48.9701 34.0226 48.9268C34.1032 48.8829 34.1647 48.823 34.2073 48.747C34.2505 48.6704 34.2722 48.5829 34.2722 48.4847V47.1719ZM35.6235 49.1843H35.0025V47.1719H35.651C35.8462 47.1719 36.0132 47.2122 36.1521 47.2928C36.291 47.3727 36.3974 47.4876 36.4715 47.6377C36.5455 47.787 36.5825 47.9658 36.5825 48.1742C36.5825 48.3838 36.5451 48.5642 36.4705 48.7156C36.3958 48.8662 36.2871 48.9822 36.1442 49.0634C36.0014 49.144 35.8279 49.1843 35.6235 49.1843ZM35.2462 48.9681H35.6078C35.7741 48.9681 35.912 48.936 36.0214 48.8718C36.1308 48.8076 36.2124 48.7162 36.2661 48.5977C36.3198 48.4791 36.3467 48.3379 36.3467 48.1742C36.3467 48.0117 36.3201 47.8718 36.2671 47.7546C36.214 47.6367 36.1348 47.5463 36.0293 47.4834C35.9238 47.4199 35.7925 47.3881 35.6353 47.3881H35.2462V48.9681ZM37.2349 47.1719V49.1843H36.9912V47.1719H37.2349Z" fill="#13416F"/>
<path d="M23.3078 53.6984H22.3316V50.9447H23.3159C23.5929 50.9447 23.8313 50.9998 24.0312 51.1101C24.2311 51.2194 24.3848 51.3767 24.4924 51.582C24.6009 51.7873 24.6551 52.0329 24.6551 52.3189C24.6551 52.6057 24.6009 52.8522 24.4924 53.0584C24.3848 53.2646 24.2302 53.4228 24.0285 53.533C23.8277 53.6433 23.5875 53.6984 23.3078 53.6984ZM22.9138 53.1996H23.2836C23.4557 53.1996 23.6005 53.1691 23.7179 53.1081C23.8362 53.0463 23.925 52.9508 23.9841 52.8217C24.0442 52.6918 24.0742 52.5241 24.0742 52.3189C24.0742 52.1154 24.0442 51.9491 23.9841 51.82C23.925 51.6909 23.8367 51.5959 23.7193 51.535C23.6018 51.474 23.4571 51.4435 23.2849 51.4435H22.9138V53.1996ZM25.6686 50.9447V53.6984H25.0864V50.9447H25.6686ZM27.9736 51.8348C27.9548 51.7694 27.9283 51.7115 27.8943 51.6613C27.8602 51.6103 27.8185 51.5672 27.7692 51.5323C27.7208 51.4964 27.6652 51.4691 27.6025 51.4502C27.5406 51.4314 27.472 51.422 27.3968 51.422C27.256 51.422 27.1323 51.457 27.0256 51.5269C26.9199 51.5968 26.8374 51.6985 26.7782 51.8321C26.7191 51.9648 26.6895 52.127 26.6895 52.3189C26.6895 52.5107 26.7186 52.6738 26.7769 52.8083C26.8352 52.9428 26.9176 53.0454 27.0243 53.1162C27.131 53.1861 27.2569 53.2211 27.4021 53.2211C27.5339 53.2211 27.6464 53.1978 27.7396 53.1512C27.8337 53.1037 27.9055 53.0369 27.9548 52.9508C28.005 52.8648 28.0301 52.763 28.0301 52.6456L28.1484 52.6631H27.4384V52.2247H28.5908V52.5716C28.5908 52.8137 28.5397 53.0216 28.4375 53.1955C28.3353 53.3685 28.1946 53.5021 28.0153 53.5962C27.836 53.6895 27.6307 53.7361 27.3994 53.7361C27.1413 53.7361 26.9145 53.6792 26.7191 53.5653C26.5237 53.4506 26.3713 53.2879 26.2619 53.0772C26.1534 52.8657 26.0992 52.6147 26.0992 52.3242C26.0992 52.101 26.1315 51.902 26.196 51.7272C26.2615 51.5515 26.3529 51.4027 26.4703 51.2808C26.5877 51.1589 26.7244 51.0661 26.8804 51.0025C27.0364 50.9388 27.2054 50.907 27.3873 50.907C27.5433 50.907 27.6885 50.9299 27.823 50.9756C27.9575 51.0204 28.0767 51.0841 28.1807 51.1665C28.2855 51.249 28.3711 51.3472 28.4375 51.461C28.5038 51.5739 28.5464 51.6985 28.5652 51.8348H27.9736ZM29.6103 50.9447V53.6984H29.0281V50.9447H29.6103ZM29.9844 51.4247V50.9447H32.2461V51.4247H31.403V53.6984H30.8275V51.4247H29.9844ZM32.7567 53.6984H32.1328L33.0834 50.9447H33.8337L34.783 53.6984H34.1591L33.4693 51.5739H33.4478L32.7567 53.6984ZM32.7177 52.616H34.1914V53.0705H32.7177V52.616ZM35.1144 53.6984V50.9447H35.6967V53.2184H36.8772V53.6984H35.1144Z" fill="#13416F"/>
</svg>
